<svg xmlns="http://www.w3.org/2000/svg" width="55" height="55" viewBox="0 0 55 55"><defs><style>.plan-cls-1{fill:#fff}</style></defs><title>Plan</title><g id="Layer_2" data-name="Layer 2"><g id="Layer_1-2" data-name="Layer 1"><path class="plan-cls-1" d="M46.32 15.93H7.24a.72.72 0 0 0 0 1.45h39.08a.72.72 0 1 0 0-1.45zm-2.89 8.68a4.35 4.35 0 0 0-4.28 3.61h-7.38a4.34 4.34 0 0 0-8.55 0h-7.36a4.34 4.34 0 1 0 0 1.45h7.36a4.34 4.34 0 0 0 8.56 0h7.37a4.34 4.34 0 1 0 4.28-5.06zm-31.85 7.24A2.89 2.89 0 1 1 14.47 29a2.9 2.9 0 0 1-2.89 2.85zm15.92 0A2.89 2.89 0 1 1 30.39 29a2.9 2.9 0 0 1-2.89 2.85zm15.93 0A2.89 2.89 0 1 1 46.32 29a2.9 2.9 0 0 1-2.89 2.85zM39.15 42.7h-7.37a4.34 4.34 0 0 0-8.55 0h-7.37a4.34 4.34 0 1 0 0 1.45h7.37a4.34 4.34 0 0 0 8.55 0h7.38a4.34 4.34 0 1 0 0-1.45zm-27.57 3.62a2.89 2.89 0 1 1 2.89-2.89 2.9 2.9 0 0 1-2.89 2.89zm15.92 0a2.89 2.89 0 1 1 2.89-2.89 2.9 2.9 0 0 1-2.89 2.89zm18.82-2.89a2.89 2.89 0 1 1-2.89-2.89 2.9 2.9 0 0 1 2.89 2.89z"/><path class="plan-cls-1" d="M51.4 4.34H37.63a.72.72 0 0 0 0 1.45H51.4a2.15 2.15 0 0 1 2.15 2.15V51.4a2.15 2.15 0 0 1-2.15 2.15H3.6a2.15 2.15 0 0 1-2.15-2.15V7.94A2.15 2.15 0 0 1 3.6 5.79h19.62a5.07 5.07 0 1 0 0-1.45H3.6A3.6 3.6 0 0 0 0 7.94V51.4A3.6 3.6 0 0 0 3.6 55h47.8a3.6 3.6 0 0 0 3.6-3.6V7.94a3.6 3.6 0 0 0-3.6-3.6zM28.22 1.45a3.62 3.62 0 1 1-3.62 3.62 3.62 3.62 0 0 1 3.62-3.62z"/></g></g></svg>