<svg xmlns="http://www.w3.org/2000/svg" width="49" height="54.76" viewBox="0 0 49 54.76"><defs><style>.create-cls-1{fill:#fff}</style></defs><title>Create</title><g id="Layer_2" data-name="Layer 2"><g id="Layer_1-2" data-name="Layer 1"><path class="create-cls-1" d="M45.9 7.21H41a7.93 7.93 0 1 0 0 1.44h4.9a1.62 1.62 0 0 1 1.66 1.59v41.5a1.62 1.62 0 0 1-1.66 1.59H3.1a1.62 1.62 0 0 1-1.66-1.59V10.23A1.62 1.62 0 0 1 3.1 8.65H14a.72.72 0 1 0 0-1.44H3.1a3.07 3.07 0 0 0-3.1 3v41.53a3.07 3.07 0 0 0 3.1 3h42.8a3.07 3.07 0 0 0 3.1-3V10.23a3.07 3.07 0 0 0-3.1-3.02zm-12.75 7.2a6.49 6.49 0 1 1 6.49-6.49 6.49 6.49 0 0 1-6.49 6.49z"/><path class="create-cls-1" d="M12.46 21.11a.72.72 0 0 0 0 1l9.35 9.35-9.35 9.35a.72.72 0 1 0 1 1L23.34 32a.72.72 0 0 0 0-1l-9.86-9.86a.72.72 0 0 0-1.02-.03zM36 42.51a.72.72 0 1 0 0-1.44h-8.62a.72.72 0 0 0 0 1.44z"/></g></g></svg>