<svg xmlns="http://www.w3.org/2000/svg" width="54" height="53.98" viewBox="0 0 54 53.98"><defs><style>.measure-cls-1{fill:#fff}</style></defs><title>Measure</title><g id="Layer_2" data-name="Layer 2"><path class="measure-cls-1" d="M48.32 47.58A5.62 5.62 0 0 0 45 48.69a9.22 9.22 0 0 0-13.38-2.92L30 34.8h.87l2.72 5.43a1.46 1.46 0 0 0 1.22.73h2a1.47 1.47 0 0 0 .94-.42 1.34 1.34 0 0 0 .37-.63l2.44-9.34a1.52 1.52 0 0 0-.32-1.25l-5.25-5.87c.16-2 .25-3.82.27-5.43 0-7.47-2-12.41-7.22-17.63a1.46 1.46 0 0 0-2 0c-4 4-5.9 7.34-6.71 11.7a4.23 4.23 0 1 0 1.44 0c.78-3.93 2.58-7 6.27-10.76C31.87 6.3 33.78 11 33.79 18c0 1.65-.11 3.48-.29 5.62a.71.71 0 0 0 .18.53l5.44 6.09-2.41 9.29H34.8l-2.9-5.79a.71.71 0 0 0-.64-.39h-8.53a.71.71 0 0 0-.64.39l-2.87 5.77H17.3l-2.43-9.29 5.45-6.1a.71.71 0 0 0-1.06-.95l-5.47 6.13a1.52 1.52 0 0 0-.29 1.27l2.43 9.29A1.45 1.45 0 0 0 17.28 41h1.94a1.41 1.41 0 0 0 1-.42 1.23 1.23 0 0 0 .25-.34l2.7-5.4H24l-1.62 11A9.22 9.22 0 0 0 9 48.68a5.68 5.68 0 0 0-9 4.59.71.71 0 0 0 .71.73h52.58a.71.71 0 0 0 .71-.71 5.69 5.69 0 0 0-5.68-5.71zM21.9 14.31a2.84 2.84 0 0 1 0 4 2.91 2.91 0 0 1-4 0 2.84 2.84 0 1 1 4-4zM1.48 52.56A4.27 4.27 0 0 1 5.68 49a4.23 4.23 0 0 1 3.06 1.3.71.71 0 0 0 1.16-.21 7.8 7.8 0 0 1 12.54-2.48.71.71 0 0 0 1.19-.41l1.84-12.42h3l1.84 12.42a.71.71 0 0 0 1.19.41 7.8 7.8 0 0 1 12.59 2.49.71.71 0 0 0 1.16.21A4.23 4.23 0 0 1 48.31 49a4.27 4.27 0 0 1 4.2 3.55z" id="Layer_1-2" data-name="Layer 1"/></g></svg>