<svg xmlns="http://www.w3.org/2000/svg" viewBox="0 0 76 76" enable-background="new 0 0 76 76"><path d="m56.991 49.18c-1.509-.581-3.151-.54-4.625.116-1.476.655-2.608 1.845-3.188 3.352s-.539 3.149.116 4.624c.654 1.477 1.845 2.608 3.352 3.188.706.272 1.44.407 2.175.407.833 0 1.665-.175 2.449-.522 1.477-.654 2.608-1.845 3.188-3.352.581-1.507.54-3.149-.115-4.625s-1.846-2.608-3.352-3.188m1.601 7.094c-.388 1.01-1.146 1.804-2.133 2.242-.988.439-2.086.466-3.095.077-1.01-.388-1.804-1.146-2.242-2.134-.438-.986-.466-2.085-.078-3.094.389-1.01 1.146-1.804 2.134-2.242.524-.233 1.082-.351 1.64-.351.491 0 .982.091 1.455.272 1.01.389 1.804 1.146 2.242 2.133.438.99.465 2.089.077 3.097"/><path d="m75.48 58.38l-.154-.087-3.138-1.702c-.341-.187-.41-.4-.431-.548-.001-.008-.023-.161-.024-.169.035-.929.012-1.895-.07-2.872-.003-.045.005-.085.005-.104l.033-.226c.054-.201.172-.35.383-.479.479-.297.962-.59 1.444-.882l1.755-1.068c.392-.238.57-.712.435-1.149-.635-2.052-1.506-4.01-2.589-5.814-.029-.05-.063-.096-.103-.138-.045-.063-.097-.122-.156-.175-.258-.228-.612-.306-.946-.21l-1.013.298c-.817.239-1.634.479-2.449.726-.493.149-.749.017-.975-.226-.632-.681-1.333-1.347-2.083-1.979-.255-.217-.297-.413-.303-.502.001-.095.007-.164.021-.228.256-1.12.534-2.234.812-3.35l.038-.149c.027-.106.041-.213.041-.317.087-.433-.121-.874-.515-1.081-1.903-1-3.905-1.771-5.95-2.285-.432-.109-.884.082-1.108.468l-1.804 3.307c-.229.416-.465.48-.749.461-1-.026-2.01-.003-2.986.074-.331.034-.553-.089-.739-.383-.604-.957-1.187-1.925-1.771-2.895l-.109-.182c-.316-.531-.895-.735-1.467-.519l-.795.292c-.568.207-1.138.415-1.7.643-.926.374-1.862.845-2.957 1.486-.277.168-.432.371-.516.565-.12.22-.158.482-.091.738l.313 1.07c.252.85.505 1.698.753 2.549.022.077.027.152.03.154.006.201-.03.425-.335.698-.616.553-1.224 1.19-1.909 2.01-.255.304-.507.386-.906.291l-3.627-.876c-.443-.112-.905.101-1.119.505-.104.197-.192.4-.279.604-.05.114-.099.229-.153.343-.004.008-.048.093-.051.101-.026.052-.049.106-.079.183-.786 1.684-1.352 3.224-1.728 4.709-.046.182-.034.369.023.543.072.314.277.583.58.744l3.114 1.685c.453.244.536.511.522.862-.038.971-.015 1.915.071 2.801.004.044-.003.085-.01.181-.023.237-.132.406-.355.548-.466.299-.941.586-1.416.872l-1.82 1.109c-.287.175-.463.501-.477.836-.01.074-.012.148-.005.223.007.069.023.163.044.229.05.161.11.317.173.474.034.085.069.17.11.292.003.011.037.112.04.123.02.055.042.108.08.198.618 1.733 1.307 3.234 2.106 4.588.222.376.689.71 1.35.506l1.029-.306c.816-.243 1.634-.485 2.451-.72.428-.123.643.026.8.189.697.726 1.441 1.432 2.211 2.099.166.144.243.297.249.466 0 .101-.011.195-.033.287l-.872 3.597c-.069.292.006.603.184.841.181.293.459.444.627.536l.145.076c1.227.618 2.498 1.142 3.778 1.554.383.123.77.232 1.156.341l.382.108c.132.038.256.056.372.056.486 0 .831-.302.994-.607.432-.801.867-1.598 1.302-2.396l.416-.763c.195-.355.41-.509.796-.479 1.033.028 1.98.006 2.902-.075.37-.025.608.091.816.426.229.365.452.733.676 1.102l1.274 2.085c.239.39.713.565 1.146.434 2.053-.632 4.01-1.5 5.83-2.582.386-.229.57-.688.454-1.12-.006-.082-.019-.162-.04-.231-.257-.853-.51-1.707-.763-2.561l-.261-.881c-.026-.09-.042-.182-.046-.239-.004-.21.059-.361.212-.508.698-.674 1.389-1.396 2.053-2.147l.574-.407c.095-.009.198.001.306.026.41.095.82.194 1.23.295l2.409.583c.447.104.903-.102 1.117-.505 1-1.895 1.775-3.893 2.293-5.939.115-.439-.095-.904-.485-1.126m-9.465 13.802l.034.008-.145.031.111-.039m-30.808-10.937l.17-.09.015.024-.185.066m37.05 2.572l-1.637-.396c-.417-.102-.835-.204-1.253-.301-.476-.108-.945-.106-1.401.01-.119.03-.231.082-.332.153l-.851.604c-.063.045-.121.097-.172.155-.652.742-1.33 1.454-2.02 2.114-.555.532-.84 1.22-.823 2.027.015.251.056.488.126.728l.261.882c.198.669.396 1.338.595 1.999-1.272.706-2.616 1.301-4.01 1.777l-.858-1.406c-.229-.377-.458-.754-.689-1.123-.605-.972-1.562-1.451-2.685-1.358-.846.072-1.721.096-2.672.067-1.17-.036-2.057.508-2.61 1.522l-.415.762c-.329.602-.657 1.203-.984 1.807-.285-.081-.571-.163-.854-.255-1.075-.346-2.144-.776-3.239-1.312l.708-2.916c.061-.249.09-.497.089-.792-.025-.762-.35-1.435-.938-1.944-.725-.628-1.424-1.291-2.079-1.973-.741-.772-1.736-1.03-2.792-.727-.825.236-1.648.481-2.472.726l-.414.123c-.598-1.093-1.13-2.299-1.615-3.663-.02-.055-.042-.108-.079-.195l-.644.228c.051-.038.097-.08.138-.126l.46-.242c-.008-.022-.016-.045-.023-.066l1.152-.701c.488-.295.979-.591 1.457-.897.737-.47 1.188-1.195 1.277-2.136.011-.148.019-.297.003-.465-.078-.814-.1-1.644-.064-2.537.047-1.172-.513-2.132-1.574-2.702l-2.546-1.377c.338-1.162.807-2.378 1.423-3.697l.061-.146c.002-.003.059-.115.061-.118.027-.059.055-.117.081-.177l2.829.684c1.127.269 2.16-.067 2.901-.949.624-.743 1.169-1.316 1.713-1.805.681-.609 1.025-1.388.994-2.322-.021-.189-.047-.38-.104-.578-.249-.854-.503-1.707-.756-2.561l-.109-.367c.792-.444 1.498-.788 2.191-1.068.541-.219 1.089-.418 1.637-.618l.193-.071c.518.858 1.037 1.715 1.57 2.561.575.915 1.513 1.386 2.588 1.312.907-.072 1.839-.095 2.775-.068 1.09.003 2.01-.502 2.557-1.497l1.416-2.6c1.397.399 2.771.928 4.097 1.578-.25 1.01-.499 2.01-.729 3.02-.048.207-.07.417-.071.72.04.771.389 1.457 1.01 1.984.689.581 1.332 1.191 1.91 1.813.792.85 1.863 1.128 3.02.777.81-.244 1.622-.482 2.435-.721l.278-.082c.72 1.282 1.328 2.642 1.813 4.056l-1.075.654c-.487.295-.975.591-1.46.892-.64.396-1.076.971-1.282 1.755l-.054.318c-.004.022-.011.093-.014.116-.016.159-.025.317-.011.488.074.896.096 1.78.064 2.634-.006.147.009.282.039.493.119.873.637 1.601 1.455 2.049l2.601 1.412c-.4 1.383-.926 2.744-1.57 4.056"/><path d="m16.991 16.824c-1.163 1.119-1.822 2.624-1.854 4.238-.032 1.615.567 3.146 1.687 4.31 1.185 1.232 2.771 1.853 4.358 1.853 1.508 0 3.02-.56 4.189-1.685 2.402-2.311 2.479-6.146.168-8.549-2.311-2.404-6.145-2.476-8.548-.167m6.994 7.275c-1.608 1.546-4.174 1.495-5.72-.113-.749-.778-1.149-1.803-1.128-2.883.021-1.081.461-2.088 1.24-2.837.783-.753 1.794-1.127 2.803-1.127 1.063 0 2.125.414 2.918 1.239 1.547 1.608 1.496 4.175-.113 5.721"/><path d="m35.32 36.917c.056-.045.11-.091.156-.135.538-.499 1.036-1.032 1.456-1.488l.102-.103c.067-.067.135-.135.197-.203.055-.062.108-.126.19-.226.066-.076.137-.147.206-.22.124-.129.247-.258.361-.397.29-.354.303-.858.032-1.227l-2.163-2.938c-.23-.315-.253-.569-.079-.906.475-.923.82-1.714 1.09-2.489.129-.373.313-.487.442-.538.067-.021.134-.044.208-.053.825-.095 1.651-.187 2.477-.277l1.177-.134c.312-.039.579-.22.733-.478.108-.145.199-.337.233-.592.16-1.198.232-2.252.221-3.224-.008-.593-.036-1.186-.064-1.778l-.037-.827c-.024-.611-.434-1.062-1.039-1.147l-.114-.016c-1.127-.163-2.253-.325-3.376-.51-.326-.054-.508-.206-.607-.508-.305-.922-.663-1.838-1.064-2.723-.1-.22-.152-.473.131-.83.484-.611.972-1.22 1.459-1.829l.83-1.04c.28-.356.285-.856.014-1.219-1.242-1.654-2.694-3.169-4.318-4.502-.347-.285-.838-.304-1.202-.051-.077.033-.16.08-.246.144-.941.707-1.883 1.414-2.841 2.102-.051.037-.114.071-.146.087-.143.05-.325.084-.608-.06-.878-.446-1.721-.815-2.576-1.127-.306-.112-.506-.281-.559-.774-.088-.847-.183-1.692-.277-2.537l-.105-.933c-.004-.054-.022-.147-.034-.199-.073-.315-.326-.557-.626-.68-.017-.008-.034-.014-.052-.02-.071-.028-.146-.048-.225-.06-2.042-.29-4.14-.33-6.231-.124-.455.045-.821.394-.89.846l-.289 1.923c-.085.568-.169 1.137-.258 1.702-.034.213-.11.364-.245.484l-.171.113c-.005.003-.139.074-.145.077-.918.3-1.8.646-2.614 1.026-.048.021-.096.029-.177.05-.151.034-.355.048-.637-.178l-2.874-2.3c-.351-.265-.836-.273-1.196-.014-.004.003-.012.009-.02.017-.051.033-.098.07-.142.112-1.605 1.229-3.068 2.647-4.349 4.213-.289.354-.301.858-.031 1.225l1.419 1.927c.251.34.502.68.752 1.026.063.087.109.174.139.265l-.142.647c-.424.88-.813 1.776-1.158 2.666-.046.119-.105.207-.185.274-.02.011-.038.021-.052.031-.04.026-.083.049-.105.058-.088.032-.174.052-.266.062l-.769.086c-.908.102-1.817.203-2.72.3-.069.007-.143.023-.215.047-.443.061-.793.408-.855.852-.289 2.05-.33 4.151-.123 6.245.045.455.393.821.845.89l2.411.364c.401.06.802.119 1.205.185.372.06.56.216.67.557.278.866.616 1.733 1.033 2.652.125.273.15.527-.13.878l-.454.568c-.58.729-1.16 1.456-1.747 2.184-.277.348-.419.913.02 1.462l.27.337c.237.298.474.596.722.885.86 1 1.814 1.951 2.822 2.81.052.045.1.085.135.112.148.116.349.275.619.346.313.115.669.071.944-.132l2.913-2.152c.077-.057.157-.103.224-.131.182-.069.339-.059.531.035.906.446 1.825.849 2.73 1.197.209.08.409.212.459.63.102.854.194 1.709.287 2.564l.105.969c.068.681.557.984.986 1.042 1 .136 2.06.203 3.197.203.501 0 1.019-.013 1.554-.039h.123c.086.003.171.001.266-.004l.287-.024c.075-.006.151-.006.228-.008.139-.002.278-.006.517-.034l-.005-.023c.033-.006.07-.014.107-.022l.005.019c.083-.022.162-.056.235-.099.298-.141.511-.422.561-.754l.306-2.02c.081-.552.162-1.104.257-1.655.042-.242.145-.398.313-.495.064-.035.126-.074.202-.099.846-.265 1.707-.603 2.562-1 .303-.141.567-.17.952.142l2.691 2.163c.214.176.468.266.726.266.002 0 .003 0 .005 0 .236.019.477-.048.679-.199.62-.469 1.185-.98 1.73-1.476.002-.003.093-.082.094-.083m2.321-27.414l.013.011-.015-.009.002-.002m-3.588 25.867l-.168.146c-.355.322-.698.632-1.049.926l-2.183-1.754c-.925-.748-2.01-.889-3.058-.396-.774.362-1.552.667-2.311.905-.206.063-.383.153-.576.259-.705.401-1.172 1.078-1.313 1.904-.098.566-.182 1.135-.266 1.704l-.187 1.243c-.022.002-.043.004-.046.004l-.273.013c-.081-.001-.159-.001-.239.003-1.358.067-2.584.043-3.724-.07l-.035-.323c-.094-.861-.188-1.724-.289-2.584-.129-1.079-.742-1.882-1.727-2.261-.851-.326-1.714-.705-2.565-1.124-.695-.344-1.436-.38-2.163-.096-.239.1-.456.223-.664.377l-2.339 1.729c-.856-.748-1.659-1.557-2.389-2.405-.185-.217-.363-.438-.541-.661.442-.552.883-1.104 1.324-1.657l.452-.567c.712-.892.85-1.94.388-2.954-.384-.847-.694-1.644-.949-2.438-.343-1.059-1.145-1.74-2.257-1.918-.408-.066-.818-.127-1.228-.188l-1.623-.247c-.096-1.426-.067-2.85.085-4.251.708-.077 1.416-.157 2.124-.236l.767-.085c.245-.027.488-.083.747-.177.182-.071.354-.16.434-.219.047-.023.116-.064.158-.095.413-.298.721-.702.914-1.201.339-.874.724-1.756 1.145-2.621.034-.071.061-.147.078-.225l.212-.973c.024-.114.029-.232.014-.349-.064-.47-.245-.911-.532-1.306-.252-.35-.508-.696-.765-1.043l-.95-1.285c.928-1.063 1.948-2.045 3.047-2.93l2.24 1.795c.696.557 1.532.756 2.411.542.161-.041.319-.086.489-.164.747-.349 1.553-.665 2.395-.94.141-.046.263-.105.383-.17.023-.013.113-.061.136-.075l.318-.204c.031-.021.062-.042.091-.065.532-.434.874-1.037.987-1.748.09-.572.175-1.146.261-1.721l.17-1.137c1.442-.098 2.878-.066 4.291.091l.024.221c.095.841.189 1.681.277 2.523.125 1.182.785 2.049 1.859 2.443.781.285 1.552.622 2.356 1.032.718.364 1.478.419 2.252.135.219-.094.408-.199.578-.322.815-.586 1.62-1.186 2.423-1.787 1.075.938 2.061 1.965 2.943 3.064l-.333.416c-.489.611-.979 1.224-1.466 1.837-.695.879-.832 1.907-.385 2.897.373.821.705 1.671.988 2.525.331 1 1.126 1.679 2.181 1.853.96.158 1.923.301 2.886.439l.009.183c.026.57.054 1.141.062 1.71.009.719-.034 1.496-.133 2.362l-.451.05c-.828.092-1.657.184-2.486.279-.21.024-.398.074-.637.151-.8.304-1.379.916-1.674 1.771-.237.685-.549 1.393-.979 2.23-.519 1.01-.433 2.074.244 3l1.677 2.278c-.001.002-.003.004-.005.006-.006.007-.06.071-.065.079l-.107.126c-.037.041-.076.079-.115.118l-.162.165c-.399.434-.864.933-1.413 1.437"/></svg>