<svg xmlns="http://www.w3.org/2000/svg" width="47" height="54.12" viewBox="0 0 47 54.12"><defs><style>.release-cls-1{fill:#fff}</style></defs><title>Release</title><g id="Layer_2" data-name="Layer 2"><g id="Layer_1-2" data-name="Layer 1"><path class="release-cls-1" d="M40.59 3.56H29.13a4.27 4.27 0 1 0 0 1.42h11.46a5 5 0 0 1 5 5v34.17a5 5 0 0 1-5 5h-7.9L35 46.79a.71.71 0 0 0-1-1l-3.56 3.56a.71.71 0 0 0 0 1L34 53.91a.71.71 0 0 0 1-1l-2.34-2.35h7.9A6.42 6.42 0 0 0 47 44.15V10a6.42 6.42 0 0 0-6.41-6.44zM24.92 7.12a2.85 2.85 0 1 1 2.85-2.85 2.85 2.85 0 0 1-2.85 2.85zm-2.84 38.46a4.28 4.28 0 0 0-4.21 3.56H6.41a5 5 0 0 1-5-5V10a5 5 0 0 1 5-5h7.9L12 7.33a.71.71 0 1 0 1 1l3.56-3.56a.71.71 0 0 0 0-1L13 .21a.71.71 0 1 0-1 1l2.35 2.35H6.41A6.42 6.42 0 0 0 0 10v34.15a6.42 6.42 0 0 0 6.41 6.41h11.46a4.27 4.27 0 1 0 4.21-5zm0 7.12a2.85 2.85 0 1 1 2.85-2.85 2.85 2.85 0 0 1-2.85 2.85z"/><path class="release-cls-1" d="M38.45 28.86a.71.71 0 0 0-.71-.71h-7.36L26.8 17.53a.71.71 0 0 0-.65-.48.69.69 0 0 0-.68.44l-7 17.2-3.76-6.19a.71.71 0 0 0-.61-.34H9.26a.71.71 0 1 0 0 1.42h4.47L18 36.64a.71.71 0 0 0 .61.34h.06a.71.71 0 0 0 .6-.44l6.79-16.74 3.13 9.29a.71.71 0 0 0 .67.48h7.87a.71.71 0 0 0 .72-.71z"/></g></g></svg>