<svg xmlns="http://www.w3.org/2000/svg" width="54" height="54" viewBox="0 0 54 54"><defs><style>.review-cls-1{fill:#fff}</style></defs><title>Review</title><g id="Layer_2" data-name="Layer 2"><g id="Layer_1-2" data-name="Layer 1"><path class="review-cls-1" d="M52 16.87a.71.71 0 1 0-1.32.53A25.61 25.61 0 1 1 41.9 6.21a4.29 4.29 0 1 0 1-1.05A26.94 26.94 0 1 0 52 16.87zM43.46 6.52a2.84 2.84 0 1 1 4 4 2.91 2.91 0 0 1-4 0 2.84 2.84 0 0 1 0-4z"/><path class="review-cls-1" d="M19.32 21.44a.71.71 0 0 0-1-.26l-9 5.21a.71.71 0 0 0 0 1.23l9 5.21a.7.7 0 0 0 .36.1.71.71 0 0 0 .36-1.33L11.13 27l7.93-4.59a.71.71 0 0 0 .26-.97zm15.36 11.12a.71.71 0 0 0 .62.35.7.7 0 0 0 .36-.1l9-5.21a.71.71 0 0 0 0-1.23l-9-5.21a.71.71 0 1 0-.71 1.23L42.87 27l-7.93 4.59a.71.71 0 0 0-.26.97zM30.35 15l-8 23.61a.71.71 0 0 0 .44.9.7.7 0 0 0 .23 0 .71.71 0 0 0 .67-.48l8-23.61a.71.71 0 1 0-1.34-.42z"/></g></g></svg>